<?xml version="1.0" encoding="UTF-8" standalone="no"?>
<!-- Created with Inkscape (http://www.inkscape.org/) -->

<svg
   xmlns:dc="http://purl.org/dc/elements/1.1/"
   xmlns:cc="http://creativecommons.org/ns#"
   xmlns:rdf="http://www.w3.org/1999/02/22-rdf-syntax-ns#"
   xmlns:svg="http://www.w3.org/2000/svg"
   xmlns="http://www.w3.org/2000/svg"
   xmlns:sodipodi="http://sodipodi.sourceforge.net/DTD/sodipodi-0.dtd"
   xmlns:inkscape="http://www.inkscape.org/namespaces/inkscape"
   width="210mm"
   height="297mm"
   viewBox="0 0 210 297"
   version="1.1"
   id="svg8"
   inkscape:export-filename="/home/josh/android/andbeyond/assets_local/backdrop_6.png"
   inkscape:export-xdpi="254"
   inkscape:export-ydpi="254"
   inkscape:version="0.92.1 r"
   sodipodi:docname="backdrop_6.svg">
  <defs
     id="defs2" />
  <sodipodi:namedview
     id="base"
     pagecolor="#bebcbc"
     bordercolor="#666666"
     borderopacity="1.0"
     inkscape:pageopacity="0"
     inkscape:pageshadow="2"
     inkscape:zoom="2"
     inkscape:cx="299.91489"
     inkscape:cy="615.51236"
     inkscape:document-units="mm"
     inkscape:current-layer="layer1"
     showgrid="false"
     inkscape:snap-nodes="false"
     inkscape:window-width="1918"
     inkscape:window-height="1042"
     inkscape:window-x="0"
     inkscape:window-y="18"
     inkscape:window-maximized="0" />
  <metadata
     id="metadata5">
    <rdf:RDF>
      <cc:Work
         rdf:about="">
        <dc:format>image/svg+xml</dc:format>
        <dc:type
           rdf:resource="http://purl.org/dc/dcmitype/StillImage" />
        <dc:title></dc:title>
      </cc:Work>
    </rdf:RDF>
  </metadata>
  <g
     inkscape:label="Layer 1"
     inkscape:groupmode="layer"
     id="layer1">
    <g
       id="g10136"
       transform="translate(-0.5291677)">
      <g
         id="g10118"
         transform="translate(-0.56891461)">
        <path
           sodipodi:nodetypes="cccccccccccccccccccccccccccccccccc"
           inkscape:connector-curvature="0"
           id="path10112"
           d="m 98.302756,178.44559 -3.712396,-4.15519 3.712396,-4.15752 -3.712396,-4.15751 3.712396,-4.07837 -3.712396,-4.07684 3.712396,-4.15752 -3.712396,-4.15751 3.712396,-4.07431 -3.712396,-4.07274 3.712396,-4.15752 -3.712396,-4.15752 3.712396,-4.07838 -3.712396,-4.07684 3.712396,-4.15752 -3.712396,-4.15751 3.712396,-4.15672 H 86.025274 l 3.663975,4.15672 -3.712387,4.15751 3.712387,4.15752 -3.712387,4.07684 3.712387,4.07838 -3.712387,4.15752 3.712387,4.15752 -3.707823,4.07274 3.707823,4.07431 -3.712387,4.15751 3.712387,4.15752 -3.712387,4.07684 3.712387,4.07837 -3.712387,4.15751 3.712387,4.15752 -3.712387,4.15519 z"
           style="fill:#42494c;fill-opacity:1;fill-rule:evenodd;stroke:#000000;stroke-width:0.26458332px;stroke-linecap:butt;stroke-linejoin:miter;stroke-opacity:1" />
        <path
           transform="scale(1,-1)"
           style="fill:#5f6e7d;fill-opacity:1;fill-rule:evenodd;stroke:#000000;stroke-width:0.46499997;stroke-miterlimit:4;stroke-dasharray:none;stroke-dashoffset:0;stroke-opacity:1"
           id="path10114"
           sodipodi:type="arc"
           sodipodi:cx="92.139809"
           sodipodi:cy="-185.05066"
           sodipodi:rx="12.119648"
           sodipodi:ry="9.6572914"
           sodipodi:start="0"
           sodipodi:end="3.1415927"
           sodipodi:open="true"
           d="m 104.25946,-185.05066 a 12.119648,9.6572914 0 0 1 -6.059828,8.36346 12.119648,9.6572914 0 0 1 -12.119648,0 12.119648,9.6572914 0 0 1 -6.059823,-8.36346" />
        <path
           d="m 104.25946,105.83854 a 12.119648,9.6572914 0 0 1 -6.059828,8.36346 12.119648,9.6572914 0 0 1 -12.119648,0 12.119648,9.6572914 0 0 1 -6.059823,-8.36346"
           sodipodi:open="true"
           sodipodi:end="3.1415927"
           sodipodi:start="0"
           sodipodi:ry="9.6572914"
           sodipodi:rx="12.119648"
           sodipodi:cy="105.83854"
           sodipodi:cx="92.139809"
           sodipodi:type="arc"
           id="path10116"
           style="fill:#5f6e7d;fill-opacity:1;fill-rule:evenodd;stroke:#000000;stroke-width:0.46499997;stroke-miterlimit:4;stroke-dasharray:none;stroke-dashoffset:0;stroke-opacity:1" />
      </g>
      <g
         transform="translate(57.639422)"
         id="g10126">
        <path
           style="fill:#42494c;fill-opacity:1;fill-rule:evenodd;stroke:#000000;stroke-width:0.26458332px;stroke-linecap:butt;stroke-linejoin:miter;stroke-opacity:1"
           d="m 98.302756,178.44559 -3.712396,-4.15519 3.712396,-4.15752 -3.712396,-4.15751 3.712396,-4.07837 -3.712396,-4.07684 3.712396,-4.15752 -3.712396,-4.15751 3.712396,-4.07431 -3.712396,-4.07274 3.712396,-4.15752 -3.712396,-4.15752 3.712396,-4.07838 -3.712396,-4.07684 3.712396,-4.15752 -3.712396,-4.15751 3.712396,-4.15672 H 86.025274 l 3.663975,4.15672 -3.712387,4.15751 3.712387,4.15752 -3.712387,4.07684 3.712387,4.07838 -3.712387,4.15752 3.712387,4.15752 -3.707823,4.07274 3.707823,4.07431 -3.712387,4.15751 3.712387,4.15752 -3.712387,4.07684 3.712387,4.07837 -3.712387,4.15751 3.712387,4.15752 -3.712387,4.15519 z"
           id="path10120"
           inkscape:connector-curvature="0"
           sodipodi:nodetypes="cccccccccccccccccccccccccccccccccc" />
        <path
           d="m 104.25946,-185.05066 a 12.119648,9.6572914 0 0 1 -6.059828,8.36346 12.119648,9.6572914 0 0 1 -12.119648,0 12.119648,9.6572914 0 0 1 -6.059823,-8.36346"
           sodipodi:open="true"
           sodipodi:end="3.1415927"
           sodipodi:start="0"
           sodipodi:ry="9.6572914"
           sodipodi:rx="12.119648"
           sodipodi:cy="-185.05066"
           sodipodi:cx="92.139809"
           sodipodi:type="arc"
           id="path10122"
           style="fill:#5f6e7d;fill-opacity:1;fill-rule:evenodd;stroke:#000000;stroke-width:0.46499997;stroke-miterlimit:4;stroke-dasharray:none;stroke-dashoffset:0;stroke-opacity:1"
           transform="scale(1,-1)" />
        <path
           style="fill:#5f6e7d;fill-opacity:1;fill-rule:evenodd;stroke:#000000;stroke-width:0.46499997;stroke-miterlimit:4;stroke-dasharray:none;stroke-dashoffset:0;stroke-opacity:1"
           id="path10124"
           sodipodi:type="arc"
           sodipodi:cx="92.139809"
           sodipodi:cy="105.83854"
           sodipodi:rx="12.119648"
           sodipodi:ry="9.6572914"
           sodipodi:start="0"
           sodipodi:end="3.1415927"
           sodipodi:open="true"
           d="m 104.25946,105.83854 a 12.119648,9.6572914 0 0 1 -6.059828,8.36346 12.119648,9.6572914 0 0 1 -12.119648,0 12.119648,9.6572914 0 0 1 -6.059823,-8.36346" />
      </g>
    </g>
    <g
       id="g10110"
       transform="translate(28.006086)">
      <path
         sodipodi:nodetypes="cccccccccccccccccccccccccccccccccc"
         inkscape:connector-curvature="0"
         id="path10063"
         d="m 98.302756,178.44559 -3.712396,-4.15519 3.712396,-4.15752 -3.712396,-4.15751 3.712396,-4.07837 -3.712396,-4.07684 3.712396,-4.15752 -3.712396,-4.15751 3.712396,-4.07431 -3.712396,-4.07274 3.712396,-4.15752 -3.712396,-4.15752 3.712396,-4.07838 -3.712396,-4.07684 3.712396,-4.15752 -3.712396,-4.15751 3.712396,-4.15672 H 86.025274 l 3.663975,4.15672 -3.712387,4.15751 3.712387,4.15752 -3.712387,4.07684 3.712387,4.07838 -3.712387,4.15752 3.712387,4.15752 -3.707823,4.07274 3.707823,4.07431 -3.712387,4.15751 3.712387,4.15752 -3.712387,4.07684 3.712387,4.07837 -3.712387,4.15751 3.712387,4.15752 -3.712387,4.15519 z"
         style="fill:#42494c;fill-opacity:1;fill-rule:evenodd;stroke:#000000;stroke-width:0.26458332px;stroke-linecap:butt;stroke-linejoin:miter;stroke-opacity:1" />
      <path
         transform="scale(1,-1)"
         style="fill:#5f6e7d;fill-opacity:1;fill-rule:evenodd;stroke:#000000;stroke-width:0.46499997;stroke-miterlimit:4;stroke-dasharray:none;stroke-dashoffset:0;stroke-opacity:1"
         id="path10061"
         sodipodi:type="arc"
         sodipodi:cx="92.139809"
         sodipodi:cy="-185.05066"
         sodipodi:rx="12.119648"
         sodipodi:ry="9.6572914"
         sodipodi:start="0"
         sodipodi:end="3.1415927"
         sodipodi:open="true"
         d="m 104.25946,-185.05066 a 12.119648,9.6572914 0 0 1 -6.059828,8.36346 12.119648,9.6572914 0 0 1 -12.119648,0 12.119648,9.6572914 0 0 1 -6.059823,-8.36346" />
      <path
         d="m 104.25946,105.83854 a 12.119648,9.6572914 0 0 1 -6.059828,8.36346 12.119648,9.6572914 0 0 1 -12.119648,0 12.119648,9.6572914 0 0 1 -6.059823,-8.36346"
         sodipodi:open="true"
         sodipodi:end="3.1415927"
         sodipodi:start="0"
         sodipodi:ry="9.6572914"
         sodipodi:rx="12.119648"
         sodipodi:cy="105.83854"
         sodipodi:cx="92.139809"
         sodipodi:type="arc"
         id="path10059"
         style="fill:#5f6e7d;fill-opacity:1;fill-rule:evenodd;stroke:#000000;stroke-width:0.46499997;stroke-miterlimit:4;stroke-dasharray:none;stroke-dashoffset:0;stroke-opacity:1" />
    </g>
    <path
       style="fill:#d7ddd7;fill-opacity:1;fill-rule:evenodd;stroke:none;stroke-width:3.02362251;stroke-miterlimit:4;stroke-dasharray:none;stroke-dashoffset:0;stroke-opacity:1"
       d="M 250 186.84961 L 250 347.16992 L 286.70117 401.21289 L 454.09375 401.21289 L 621.48828 401.21289 L 658.18945 347.16797 L 658.18945 186.84961 L 250 186.84961 z M 286.70117 698.1582 L 250 752.20117 L 250 912.51953 L 658.18945 912.51953 L 658.18945 752.20312 L 621.48828 698.1582 L 454.09375 698.1582 L 286.70117 698.1582 z "
       transform="scale(0.26458333)"
       id="rect4485" />
    <rect
       style="fill:none;fill-opacity:1;fill-rule:evenodd;stroke:#c2c9c3;stroke-width:0.66500002;stroke-miterlimit:4;stroke-dasharray:none;stroke-dashoffset:0;stroke-opacity:0.31000001"
       id="rect6779"
       width="107.33207"
       height="0.8767519"
       x="66.479805"
       y="209.34116" />
    <rect
       style="fill:none;fill-opacity:1;fill-rule:evenodd;stroke:#c2c9c3;stroke-width:0.66500002;stroke-miterlimit:4;stroke-dasharray:none;stroke-dashoffset:0;stroke-opacity:0.31000001"
       id="rect6781"
       width="107.33207"
       height="0.8767519"
       x="66.479805"
       y="82.341026" />
    <rect
       y="50.657177"
       x="66.479805"
       height="0.8767519"
       width="107.33207"
       id="rect6783"
       style="fill:none;fill-opacity:1;fill-rule:evenodd;stroke:#c2c9c3;stroke-width:0.66500002;stroke-miterlimit:4;stroke-dasharray:none;stroke-dashoffset:0;stroke-opacity:0.31000001" />
    <g
       id="g7805"
       transform="matrix(1,0,0,-1,4.9187646e-4,290.87402)"
       style="fill:#5f6e7d;fill-opacity:1">
      <rect
         style="fill:#5f6e7d;fill-opacity:1;fill-rule:evenodd;stroke:none;stroke-width:0.46499997;stroke-miterlimit:4;stroke-dasharray:none;stroke-dashoffset:0;stroke-opacity:1"
         id="rect7801"
         width="63.376286"
         height="18.429754"
         x="88.446159"
         y="223.00642" />
      <path
         style="fill:#5f6e7d;fill-opacity:1;fill-rule:evenodd;stroke:#000000;stroke-width:0.46499997;stroke-miterlimit:4;stroke-dasharray:none;stroke-dashoffset:0;stroke-opacity:1"
         d="m 88.375748,241.43466 v -18.42824 h 63.539192 v 18.42824"
         id="path7803"
         inkscape:connector-curvature="0"
         sodipodi:nodetypes="cccc" />
    </g>
    <g
       style="fill:#5f6e7d;fill-opacity:1"
       transform="translate(4.9187646e-4,0.00227924)"
       id="g10000">
      <rect
         y="223.00642"
         x="88.446159"
         height="18.429754"
         width="63.376286"
         id="rect9996"
         style="fill:#5f6e7d;fill-opacity:1;fill-rule:evenodd;stroke:none;stroke-width:0.46499997;stroke-miterlimit:4;stroke-dasharray:none;stroke-dashoffset:0;stroke-opacity:1" />
      <path
         sodipodi:nodetypes="cccc"
         inkscape:connector-curvature="0"
         id="path9998"
         d="m 88.375748,241.43466 v -18.42824 h 63.539192 v 18.42824"
         style="fill:#5f6e7d;fill-opacity:1;fill-rule:evenodd;stroke:#000000;stroke-width:0.46499997;stroke-miterlimit:4;stroke-dasharray:none;stroke-dashoffset:0;stroke-opacity:1" />
    </g>
    <path
       style="fill:none;fill-rule:evenodd;stroke:#000000;stroke-width:0.26458332px;stroke-linecap:butt;stroke-linejoin:miter;stroke-opacity:1"
       d="m 66.25618,91.7856 9.708672,14.40526 h 44.181018 44.18107 l 9.70798,-14.405298"
       id="path9326"
       inkscape:connector-curvature="0"
       sodipodi:nodetypes="ccccc" />
    <path
       sodipodi:nodetypes="ccccc"
       inkscape:connector-curvature="0"
       id="path10043"
       d="m 66.25618,198.97636 9.708672,-14.40529 h 44.181018 44.18107 l 9.70798,14.40533"
       style="fill:none;fill-rule:evenodd;stroke:#000000;stroke-width:0.26458332px;stroke-linecap:butt;stroke-linejoin:miter;stroke-opacity:1" />
  </g>
</svg>
