<?xml version="1.0" encoding="UTF-8" standalone="no"?>
<!-- Created with Inkscape (http://www.inkscape.org/) -->

<svg
   xmlns:dc="http://purl.org/dc/elements/1.1/"
   xmlns:cc="http://creativecommons.org/ns#"
   xmlns:rdf="http://www.w3.org/1999/02/22-rdf-syntax-ns#"
   xmlns:svg="http://www.w3.org/2000/svg"
   xmlns="http://www.w3.org/2000/svg"
   xmlns:sodipodi="http://sodipodi.sourceforge.net/DTD/sodipodi-0.dtd"
   xmlns:inkscape="http://www.inkscape.org/namespaces/inkscape"
   width="210mm"
   height="297mm"
   viewBox="0 0 210 297"
   version="1.1"
   id="svg8"
   inkscape:export-filename="/home/josh/android/andbeyond/assets_local/backdrop_4.png"
   inkscape:export-xdpi="135.46652"
   inkscape:export-ydpi="135.46652"
   inkscape:version="0.92.1 r"
   sodipodi:docname="backdrop_4.svg">
  <defs
     id="defs2" />
  <sodipodi:namedview
     id="base"
     pagecolor="#bebcbc"
     bordercolor="#666666"
     borderopacity="1.0"
     inkscape:pageopacity="0"
     inkscape:pageshadow="2"
     inkscape:zoom="0.70710678"
     inkscape:cx="-82.029991"
     inkscape:cy="538.64865"
     inkscape:document-units="mm"
     inkscape:current-layer="layer1"
     showgrid="false"
     inkscape:snap-nodes="false"
     inkscape:window-width="1918"
     inkscape:window-height="1042"
     inkscape:window-x="0"
     inkscape:window-y="18"
     inkscape:window-maximized="0" />
  <metadata
     id="metadata5">
    <rdf:RDF>
      <cc:Work
         rdf:about="">
        <dc:format>image/svg+xml</dc:format>
        <dc:type
           rdf:resource="http://purl.org/dc/dcmitype/StillImage" />
        <dc:title />
      </cc:Work>
    </rdf:RDF>
  </metadata>
  <g
     inkscape:label="Layer 1"
     inkscape:groupmode="layer"
     id="layer1">
    <path
       style="fill:#b8b8b6;fill-opacity:1;fill-rule:evenodd;stroke:none;stroke-width:3.02362251;stroke-miterlimit:4;stroke-dasharray:none;stroke-dashoffset:0;stroke-opacity:1"
       d="M 250 186.84961 L 250 912.51953 L 658.18945 912.51953 L 658.18945 186.84961 L 250 186.84961 z M 327.46875 380.98828 L 581.46875 380.98828 L 581.46875 381.2168 L 589.49609 381.2168 L 589.49609 763.15625 L 317.17383 763.15625 L 317.17383 381.2168 L 327.46875 381.2168 L 327.46875 380.98828 z "
       transform="scale(0.26458333)"
       id="rect4485" />
    <rect
       y="101.62827"
       x="119.06575"
       height="99.633484"
       width="2.1602888"
       id="rect5470"
       style="opacity:1;fill:#38424a;fill-opacity:1;stroke:#000000;stroke-width:0.36268651;stroke-miterlimit:4;stroke-dasharray:none;stroke-opacity:1" />
    <path
       transform="scale(1,-1)"
       style="opacity:1;fill:#4d5761;fill-opacity:1;stroke:#000000;stroke-width:0.34134409;stroke-miterlimit:4;stroke-dasharray:none;stroke-opacity:1"
       id="path5472"
       sodipodi:type="arc"
       sodipodi:cx="120.1459"
       sodipodi:cy="-202.05533"
       sodipodi:rx="3.2327523"
       sodipodi:ry="1.7131462"
       sodipodi:start="0"
       sodipodi:end="3.1415927"
       d="m 123.37865,-202.05533 a 3.2327523,1.7131462 0 0 1 -1.61638,1.48363 3.2327523,1.7131462 0 0 1 -3.23275,0 3.2327523,1.7131462 0 0 1 -1.61638,-1.48363 l 3.23276,0 z" />
    <path
       d="m 123.37865,100.8577 a 3.2327523,1.7131462 0 0 1 -1.61638,1.48362 3.2327523,1.7131462 0 0 1 -3.23275,0 3.2327523,1.7131462 0 0 1 -1.61638,-1.48362 l 3.23276,0 z"
       sodipodi:end="3.1415927"
       sodipodi:start="0"
       sodipodi:ry="1.7131462"
       sodipodi:rx="3.2327523"
       sodipodi:cy="100.8577"
       sodipodi:cx="120.1459"
       sodipodi:type="arc"
       id="path5474"
       style="opacity:1;fill:#4d5761;fill-opacity:1;stroke:#000000;stroke-width:0.34134409;stroke-miterlimit:4;stroke-dasharray:none;stroke-opacity:1" />
    <rect
       y="101.62827"
       x="140.49701"
       height="99.633484"
       width="2.1602888"
       id="rect5436"
       style="opacity:1;fill:#38424a;fill-opacity:1;stroke:#000000;stroke-width:0.36268651;stroke-miterlimit:4;stroke-dasharray:none;stroke-opacity:1" />
    <path
       transform="scale(1,-1)"
       style="opacity:1;fill:#4d5761;fill-opacity:1;stroke:#000000;stroke-width:0.34134409;stroke-miterlimit:4;stroke-dasharray:none;stroke-opacity:1"
       id="path5438"
       sodipodi:type="arc"
       sodipodi:cx="141.57715"
       sodipodi:cy="-202.05533"
       sodipodi:rx="3.2327523"
       sodipodi:ry="1.7131462"
       sodipodi:start="0"
       sodipodi:end="3.1415927"
       d="m 144.8099,-202.05533 a 3.2327523,1.7131462 0 0 1 -1.61638,1.48363 3.2327523,1.7131462 0 0 1 -3.23275,0 3.2327523,1.7131462 0 0 1 -1.61637,-1.48363 l 3.23275,0 z" />
    <path
       d="m 144.8099,100.8577 a 3.2327523,1.7131462 0 0 1 -1.61638,1.48362 3.2327523,1.7131462 0 0 1 -3.23275,0 3.2327523,1.7131462 0 0 1 -1.61637,-1.48362 l 3.23275,0 z"
       sodipodi:end="3.1415927"
       sodipodi:start="0"
       sodipodi:ry="1.7131462"
       sodipodi:rx="3.2327523"
       sodipodi:cy="100.8577"
       sodipodi:cx="141.57715"
       sodipodi:type="arc"
       id="path5440"
       style="opacity:1;fill:#4d5761;fill-opacity:1;stroke:#000000;stroke-width:0.34134409;stroke-miterlimit:4;stroke-dasharray:none;stroke-opacity:1" />
    <g
       id="g9237">
      <path
         id="rect6773"
         transform="scale(0.26458333)"
         d="M 251.26172 551.21094 L 251.26172 554.52344 L 317.17383 554.52344 L 317.17383 551.21094 L 251.26172 551.21094 z M 589.49609 551.21094 L 589.49609 554.52344 L 656.92773 554.52344 L 656.92773 551.21094 L 589.49609 551.21094 z "
         style="fill:none;fill-opacity:1;fill-rule:evenodd;stroke:#b3b3b1;stroke-width:2.51338601;stroke-miterlimit:4;stroke-dasharray:none;stroke-dashoffset:0;stroke-opacity:1" />
      <path
         id="rect6775"
         transform="scale(0.26458333)"
         d="M 251.26172 431.21094 L 251.26172 434.52344 L 317.17383 434.52344 L 317.17383 431.21094 L 251.26172 431.21094 z M 589.49609 431.21094 L 589.49609 434.52344 L 656.92773 434.52344 L 656.92773 431.21094 L 589.49609 431.21094 z "
         style="fill:none;fill-opacity:1;fill-rule:evenodd;stroke:#b3b3b1;stroke-width:2.51338601;stroke-miterlimit:4;stroke-dasharray:none;stroke-dashoffset:0;stroke-opacity:1" />
      <path
         id="rect6777"
         transform="scale(0.26458333)"
         d="M 251.26172 671.21094 L 251.26172 674.52344 L 317.17383 674.52344 L 317.17383 671.21094 L 251.26172 671.21094 z M 589.49609 671.21094 L 589.49609 674.52344 L 656.92773 674.52344 L 656.92773 671.21094 L 589.49609 671.21094 z "
         style="fill:none;fill-opacity:1;fill-rule:evenodd;stroke:#b3b3b1;stroke-width:2.51338601;stroke-miterlimit:4;stroke-dasharray:none;stroke-dashoffset:0;stroke-opacity:1" />
      <rect
         y="209.34116"
         x="66.479805"
         height="0.8767519"
         width="107.33207"
         id="rect6779"
         style="fill:none;fill-opacity:1;fill-rule:evenodd;stroke:#b3b3b1;stroke-width:0.66500002;stroke-miterlimit:4;stroke-dasharray:none;stroke-dashoffset:0;stroke-opacity:1" />
      <rect
         y="82.341026"
         x="66.479805"
         height="0.8767519"
         width="107.33207"
         id="rect6781"
         style="fill:none;fill-opacity:1;fill-rule:evenodd;stroke:#b3b3b1;stroke-width:0.66500002;stroke-miterlimit:4;stroke-dasharray:none;stroke-dashoffset:0;stroke-opacity:1" />
      <rect
         style="fill:none;fill-opacity:1;fill-rule:evenodd;stroke:#b3b3b1;stroke-width:0.66500002;stroke-miterlimit:4;stroke-dasharray:none;stroke-dashoffset:0;stroke-opacity:1"
         id="rect6783"
         width="107.33207"
         height="0.8767519"
         x="66.479805"
         y="50.657177" />
    </g>
    <path
       style="fill:#5e524e;fill-opacity:1;fill-rule:evenodd;stroke:none;stroke-width:0.2738274px;stroke-linecap:butt;stroke-linejoin:miter;stroke-opacity:1"
       d="M 86.117243,49.438342 V 67.165424 L 72.556925,89.093281 v 56.344359 56.34488 l 13.560318,21.92734 v 17.72708 h 68.057297 v -17.72708 l 13.56032,-21.92734 V 145.43764 89.093281 l -13.56032,-21.927857 0.0504,-17.727082 z M 84.154514,100.67914 H 156.13672 V 201.74996 H 84.154514 Z"
       id="path4561"
       inkscape:connector-curvature="0" />
    <path
       sodipodi:nodetypes="cccccccccccccc"
       style="fill:none;fill-opacity:1;fill-rule:evenodd;stroke:#000000;stroke-width:0.48124632;stroke-linecap:butt;stroke-linejoin:miter;stroke-miterlimit:4;stroke-dasharray:none;stroke-opacity:1"
       d="m 154.22484,49.438509 -0.0501,17.727064 13.56004,21.927571 v 56.344666 56.34451 l -13.56004,21.92763 v 17.72709 m -68.057685,0 V 223.70995 L 72.557008,201.78232 V 145.43781 89.093144 L 86.117025,67.165573 V 49.438509"
       id="path4571"
       inkscape:connector-curvature="0"
       inkscape:export-xdpi="253.99997"
       inkscape:export-ydpi="253.99997" />
    <rect
       style="opacity:1;fill:none;stroke:#000000;stroke-width:0.48144051;stroke-miterlimit:4;stroke-dasharray:none;stroke-opacity:1"
       y="100.86385"
       x="83.918755"
       height="101.05439"
       width="72.052025"
       id="rect5402" />
    <rect
       style="opacity:1;fill:#38424a;fill-opacity:1;stroke:#000000;stroke-width:0.36268651;stroke-miterlimit:4;stroke-dasharray:none;stroke-opacity:1"
       id="rect5429"
       width="2.1602888"
       height="99.633484"
       x="97.634483"
       y="101.62827" />
    <path
       d="m 101.94738,-202.05533 a 3.2327523,1.7131462 0 0 1 -1.61637,1.48363 3.2327523,1.7131462 0 0 1 -3.232756,0 3.2327523,1.7131462 0 0 1 -1.616376,-1.48363 l 3.232752,0 z"
       sodipodi:end="3.1415927"
       sodipodi:start="0"
       sodipodi:ry="1.7131462"
       sodipodi:rx="3.2327523"
       sodipodi:cy="-202.05533"
       sodipodi:cx="98.71463"
       sodipodi:type="arc"
       id="path5427"
       style="opacity:1;fill:#4d5761;fill-opacity:1;stroke:#000000;stroke-width:0.34134409;stroke-miterlimit:4;stroke-dasharray:none;stroke-opacity:1"
       transform="scale(1,-1)" />
    <path
       style="opacity:1;fill:#4d5761;fill-opacity:1;stroke:#000000;stroke-width:0.34134409;stroke-miterlimit:4;stroke-dasharray:none;stroke-opacity:1"
       id="path5425"
       sodipodi:type="arc"
       sodipodi:cx="98.71463"
       sodipodi:cy="100.8577"
       sodipodi:rx="3.2327523"
       sodipodi:ry="1.7131462"
       sodipodi:start="0"
       sodipodi:end="3.1415927"
       d="m 101.94738,100.8577 a 3.2327523,1.7131462 0 0 1 -1.61637,1.48362 3.2327523,1.7131462 0 0 1 -3.232756,0 3.2327523,1.7131462 0 0 1 -1.616376,-1.48362 l 3.232752,0 z" />
  </g>
</svg>
