<?xml version="1.0" encoding="UTF-8" standalone="no"?>
<!-- Created with Inkscape (http://www.inkscape.org/) -->

<svg
   xmlns:dc="http://purl.org/dc/elements/1.1/"
   xmlns:cc="http://creativecommons.org/ns#"
   xmlns:rdf="http://www.w3.org/1999/02/22-rdf-syntax-ns#"
   xmlns:svg="http://www.w3.org/2000/svg"
   xmlns="http://www.w3.org/2000/svg"
   xmlns:sodipodi="http://sodipodi.sourceforge.net/DTD/sodipodi-0.dtd"
   xmlns:inkscape="http://www.inkscape.org/namespaces/inkscape"
   width="210mm"
   height="297mm"
   viewBox="0 0 210 297"
   version="1.1"
   id="svg8"
   inkscape:export-filename="/home/josh/android/andbeyond/assets_local/backdrop_0.png"
   inkscape:export-xdpi="135.46312"
   inkscape:export-ydpi="135.46312"
   inkscape:version="0.92.1 r"
   sodipodi:docname="backdrop_0.svg">
  <defs
     id="defs2" />
  <sodipodi:namedview
     id="base"
     pagecolor="#bebcbc"
     bordercolor="#666666"
     borderopacity="1.0"
     inkscape:pageopacity="0"
     inkscape:pageshadow="2"
     inkscape:zoom="2.8284271"
     inkscape:cx="416.02673"
     inkscape:cy="781.07038"
     inkscape:document-units="mm"
     inkscape:current-layer="layer1"
     showgrid="false"
     inkscape:snap-nodes="false"
     inkscape:window-width="1918"
     inkscape:window-height="1059"
     inkscape:window-x="0"
     inkscape:window-y="0"
     inkscape:window-maximized="0" />
  <metadata
     id="metadata5">
    <rdf:RDF>
      <cc:Work
         rdf:about="">
        <dc:format>image/svg+xml</dc:format>
        <dc:type
           rdf:resource="http://purl.org/dc/dcmitype/StillImage" />
        <dc:title />
      </cc:Work>
    </rdf:RDF>
  </metadata>
  <g
     inkscape:label="Layer 1"
     inkscape:groupmode="layer"
     id="layer1">
    <rect
       style="fill:#767a88;fill-opacity:0.875;fill-rule:evenodd;stroke:none;stroke-width:0.46499997;stroke-miterlimit:4;stroke-dasharray:none;stroke-dashoffset:0;stroke-opacity:1"
       id="rect12292"
       width="107.68542"
       height="166.62135"
       x="66.145836"
       y="74.75" />
    <g
       id="g12419"
       style="stroke:#69707e;stroke-opacity:1;fill:none;fill-opacity:0.79207921">
      <rect
         y="225.96259"
         x="66.375618"
         height="0.77174091"
         width="96.836388"
         id="rect12302"
         style="fill:none;fill-opacity:0.79207921;fill-rule:evenodd;stroke:#69707e;stroke-width:0.46499991;stroke-miterlimit:4;stroke-dasharray:none;stroke-dashoffset:0;stroke-opacity:1" />
      <rect
         y="97.905594"
         x="66.375618"
         height="0.77174091"
         width="100.50748"
         id="rect12294"
         style="fill:none;fill-opacity:0.79207921;fill-rule:evenodd;stroke:#69707e;stroke-width:0.46499991;stroke-miterlimit:4;stroke-dasharray:none;stroke-dashoffset:0;stroke-opacity:1" />
      <rect
         style="fill:none;fill-opacity:0.79207921;fill-rule:evenodd;stroke:#69707e;stroke-width:0.46499991;stroke-miterlimit:4;stroke-dasharray:none;stroke-dashoffset:0;stroke-opacity:1"
         id="rect12296"
         width="100.50748"
         height="0.77174091"
         x="66.375618"
         y="128.06807" />
      <rect
         y="161.40512"
         x="66.375618"
         height="0.77174091"
         width="100.50748"
         id="rect12298"
         style="fill:none;fill-opacity:0.79207921;fill-rule:evenodd;stroke:#69707e;stroke-width:0.46499991;stroke-miterlimit:4;stroke-dasharray:none;stroke-dashoffset:0;stroke-opacity:1" />
      <rect
         style="fill:none;fill-opacity:0.79207921;fill-rule:evenodd;stroke:#69707e;stroke-width:0.46499991;stroke-miterlimit:4;stroke-dasharray:none;stroke-dashoffset:0;stroke-opacity:1"
         id="rect12300"
         width="100.50748"
         height="0.77174091"
         x="66.375618"
         y="194.21301" />
    </g>
    <path
       style="fill:#b8b8b6;fill-opacity:1;fill-rule:evenodd;stroke:none;stroke-width:3.02362251;stroke-miterlimit:4;stroke-dasharray:none;stroke-dashoffset:0;stroke-opacity:1"
       d="M 250 186.84961 L 250 282.51758 L 535.99023 282.51758 L 632.01172 313.50586 L 632.01172 824.30469 L 577.52148 912.51953 L 658.18945 912.51953 L 658.18945 186.84961 L 250 186.84961 z "
       id="rect4485"
       transform="scale(0.26458333)" />
    <g
       id="g10526"
       style="stroke:#b3b3b1;stroke-opacity:1">
      <path
         id="rect6773"
         transform="scale(0.26458333)"
         d="M 631.79102 551.21094 L 631.79102 554.52344 L 656.92773 554.52344 L 656.92773 551.21094 L 631.79102 551.21094 z "
         style="fill:none;fill-opacity:1;fill-rule:evenodd;stroke:#b3b3b1;stroke-width:2.51338601;stroke-miterlimit:4;stroke-dasharray:none;stroke-dashoffset:0;stroke-opacity:1" />
      <path
         id="rect6775"
         transform="scale(0.26458333)"
         d="M 631.76172 431.21094 L 631.76172 434.52344 L 656.92773 434.52344 L 656.92773 431.21094 L 631.76172 431.21094 z "
         style="fill:none;fill-opacity:1;fill-rule:evenodd;stroke:#b3b3b1;stroke-width:2.51338601;stroke-miterlimit:4;stroke-dasharray:none;stroke-dashoffset:0;stroke-opacity:1" />
      <path
         id="rect6777"
         transform="scale(0.26458333)"
         d="M 631.92383 671.21094 L 631.92383 674.52344 L 656.92773 674.52344 L 656.92773 671.21094 L 631.92383 671.21094 z "
         style="fill:none;fill-opacity:1;fill-rule:evenodd;stroke:#b3b3b1;stroke-width:2.51338601;stroke-miterlimit:4;stroke-dasharray:none;stroke-dashoffset:0;stroke-opacity:1" />
      <path
         id="rect6779"
         transform="scale(0.26458333)"
         d="M 631.4375 791.21094 L 631.4375 794.52344 L 656.92773 794.52344 L 656.92773 791.21094 L 631.4375 791.21094 z "
         style="fill:none;fill-opacity:1;fill-rule:evenodd;stroke:#b3b3b1;stroke-width:2.51338601;stroke-miterlimit:4;stroke-dasharray:none;stroke-dashoffset:0;stroke-opacity:1" />
      <path
         id="rect6781"
         transform="scale(0.26458333)"
         d="M 624.74219 311.21094 L 631.83594 313.5 L 631.83594 314.52344 L 656.92773 314.52344 L 656.92773 311.21094 L 624.74219 311.21094 z "
         style="fill:none;fill-opacity:1;fill-rule:evenodd;stroke:#b3b3b1;stroke-width:2.51338601;stroke-miterlimit:4;stroke-dasharray:none;stroke-dashoffset:0;stroke-opacity:1" />
      <rect
         style="fill:none;fill-opacity:1;fill-rule:evenodd;stroke:#b3b3b1;stroke-width:0.66500002;stroke-miterlimit:4;stroke-dasharray:none;stroke-dashoffset:0;stroke-opacity:1"
         id="rect6783"
         width="107.33207"
         height="0.8767519"
         x="66.479805"
         y="50.657177" />
    </g>
    <path
       inkscape:connector-curvature="0"
       id="path12274"
       d="m 152.61674,241.31892 14.59847,-23.33726 V 83.059524 l -25.04273,-8.185097 -76.026917,-0.0083"
       style="fill:none;fill-rule:evenodd;stroke:#000000;stroke-width:0.465;stroke-linecap:butt;stroke-linejoin:miter;stroke-miterlimit:4;stroke-dasharray:none;stroke-opacity:1"
       sodipodi:nodetypes="ccccc" />
    <g
       id="g944">
      <path
         inkscape:connector-curvature="0"
         id="rect6484"
         d="m 80.053672,92.581516 c -0.476982,-0.676188 -1.328886,-0.890493 -1.910128,-0.480486 -0.581242,0.410007 -0.665153,1.284436 -0.188171,1.960624 l 0.969574,1.374504 c 0.476982,0.676188 1.328885,0.890494 1.910127,0.480487 0.581242,-0.410008 0.665154,-1.284437 0.188172,-1.960625 z m -0.04367,1.059928 c 0.522626,0.740895 0.711157,1.501173 0.422634,1.704697 -0.288523,0.203523 -0.94149,-0.229142 -1.464117,-0.970036 -0.522626,-0.740895 -0.71107,-1.501048 -0.422547,-1.704571 0.288523,-0.203523 0.941403,0.229016 1.46403,0.96991 z"
         style="fill:#51413a;fill-opacity:1;stroke:#000000;stroke-width:0.17711687;stroke-miterlimit:4;stroke-dasharray:none;stroke-opacity:1" />
      <path
         style="fill:#51413a;fill-opacity:1;stroke:#000000;stroke-width:0.17711687;stroke-miterlimit:4;stroke-dasharray:none;stroke-opacity:1"
         d="m 77.948924,90.009047 c -0.476982,-0.676188 -1.328886,-0.890493 -1.910128,-0.480486 -0.581242,0.410007 -0.665153,1.284436 -0.188171,1.960624 l 0.969574,1.374504 c 0.476982,0.676188 1.328885,0.890494 1.910127,0.480487 0.581242,-0.410008 0.665154,-1.284437 0.188172,-1.960625 z m -0.04367,1.059928 c 0.522626,0.740895 0.711157,1.501173 0.422634,1.704697 -0.288523,0.203523 -0.94149,-0.229142 -1.464117,-0.970036 -0.522626,-0.740895 -0.71107,-1.501048 -0.422547,-1.704571 0.288523,-0.203523 0.941403,0.229016 1.46403,0.96991 z"
         id="path925"
         inkscape:connector-curvature="0" />
      <path
         inkscape:connector-curvature="0"
         id="path927"
         d="m 76.215873,87.10325 c -0.382927,-0.733559 -1.198811,-1.059134 -1.829369,-0.729975 -0.630557,0.329159 -0.829886,1.18469 -0.446959,1.918249 l 0.778387,1.491124 c 0.382927,0.733559 1.19881,1.059135 1.829368,0.729976 0.630557,-0.32916 0.829888,-1.184691 0.44696,-1.91825 z m -0.184087,1.044733 c 0.419571,0.803756 0.505433,1.582341 0.19243,1.745732 -0.313002,0.163391 -0.902705,-0.352182 -1.322277,-1.155937 -0.419571,-0.803756 -0.505364,-1.582205 -0.192361,-1.745596 0.313002,-0.163391 0.902636,0.352046 1.322208,1.155801 z"
         style="fill:#51413a;fill-opacity:1;stroke:#000000;stroke-width:0.17711687;stroke-miterlimit:4;stroke-dasharray:none;stroke-opacity:1" />
      <path
         style="fill:#51413a;fill-opacity:1;stroke:#000000;stroke-width:0.17711687;stroke-miterlimit:4;stroke-dasharray:none;stroke-opacity:1"
         d="m 74.618175,83.959443 c -0.306028,-0.768823 -1.084406,-1.176 -1.745277,-0.912943 -0.660869,0.263057 -0.946508,1.093765 -0.640481,1.862588 l 0.622072,1.562807 c 0.306027,0.768823 1.084404,1.176001 1.745275,0.912944 0.660869,-0.263058 0.946511,-1.093766 0.640482,-1.862589 z m -0.289795,1.020478 c 0.335312,0.842394 0.34123,1.625677 0.01318,1.756256 -0.328049,0.130579 -0.862028,-0.44251 -1.197342,-1.284904 -0.335313,-0.842395 -0.341176,-1.625535 -0.01313,-1.756114 0.328049,-0.130579 0.861974,0.442368 1.197288,1.284762 z"
         id="path929"
         inkscape:connector-curvature="0" />
      <path
         inkscape:connector-curvature="0"
         id="path931"
         d="m 73.443439,80.834948 c -0.184913,-0.806566 -0.891905,-1.327937 -1.58522,-1.168988 -0.693312,0.158948 -1.102572,0.936233 -0.91766,1.742799 l 0.37588,1.639529 c 0.184912,0.806566 0.891903,1.327938 1.585218,1.168989 0.693312,-0.15895 1.102575,-0.936234 0.917661,-1.7428 z m -0.442374,0.96419 c 0.202608,0.883749 0.08873,1.658732 -0.255427,1.737632 -0.344154,0.0789 -0.784258,-0.569075 -0.986868,-1.452824 -0.202609,-0.88375 -0.0887,-1.658583 0.255455,-1.737484 0.344153,-0.0789 0.784226,0.568926 0.986836,1.452675 z"
         style="fill:#51413a;fill-opacity:1;stroke:#000000;stroke-width:0.17711687;stroke-miterlimit:4;stroke-dasharray:none;stroke-opacity:1" />
      <path
         style="fill:#51413a;fill-opacity:1;stroke:#000000;stroke-width:0.17711687;stroke-miterlimit:4;stroke-dasharray:none;stroke-opacity:1"
         d="m 72.620128,77.300245 c -0.135499,-0.816322 -0.809462,-1.37974 -1.511163,-1.263267 -0.701698,0.116473 -1.157489,0.867418 -1.021991,1.68374 l 0.275434,1.659361 c 0.135498,0.816322 0.80946,1.379741 1.511161,1.263268 0.701698,-0.116475 1.157493,-0.867419 1.021993,-1.683741 z m -0.500216,0.93549 c 0.148465,0.894439 -0.01235,1.661058 -0.360671,1.718873 -0.348317,0.05782 -0.748183,-0.615735 -0.896651,-1.510174 -0.148466,-0.894439 0.01237,-1.660907 0.360691,-1.718723 0.348315,-0.05782 0.74816,0.615584 0.896627,1.510023 z"
         id="path933"
         inkscape:connector-curvature="0" />
      <path
         inkscape:connector-curvature="0"
         id="path935"
         d="m 72.291398,73.780116 c -0.01557,-0.827345 -0.600614,-1.482624 -1.31179,-1.469239 -0.711173,0.01338 -1.271139,0.690217 -1.255569,1.517562 l 0.03166,1.681767 c 0.01557,0.827345 0.600612,1.482625 1.311788,1.46924 0.711173,-0.01339 1.271144,-0.690218 1.255571,-1.517563 z M 71.66069,74.63309 c 0.01706,0.906516 -0.253328,1.641673 -0.606352,1.648316 -0.353021,0.0066 -0.650883,-0.717816 -0.667947,-1.624332 -0.01706,-0.906517 0.253326,-1.641521 0.60635,-1.648165 0.353019,-0.0066 0.650882,0.717663 0.667945,1.624179 z"
         style="fill:#51413a;fill-opacity:1;stroke:#000000;stroke-width:0.17711687;stroke-miterlimit:4;stroke-dasharray:none;stroke-opacity:1" />
    </g>
    <g
       id="g1012">
      <path
         style="fill:#51413a;fill-opacity:1;stroke:#000000;stroke-width:0.17711687;stroke-miterlimit:4;stroke-dasharray:none;stroke-opacity:1"
         d="m 153.02304,92.581516 c 0.47698,-0.676188 1.32888,-0.890493 1.91013,-0.480486 0.58124,0.410007 0.66515,1.284436 0.18817,1.960624 l -0.96958,1.374504 c -0.47698,0.676188 -1.32888,0.890494 -1.91012,0.480487 -0.58125,-0.410008 -0.66516,-1.284437 -0.18818,-1.960625 z m 0.0437,1.059928 c -0.52263,0.740895 -0.71116,1.501173 -0.42264,1.704697 0.28853,0.203523 0.94149,-0.229142 1.46412,-0.970036 0.52263,-0.740895 0.71107,-1.501048 0.42255,-1.704571 -0.28853,-0.203523 -0.94141,0.229016 -1.46403,0.96991 z"
         id="path946"
         inkscape:connector-curvature="0" />
      <path
         inkscape:connector-curvature="0"
         id="path948"
         d="m 155.12779,90.009047 c 0.47698,-0.676188 1.32888,-0.890493 1.91012,-0.480486 0.58125,0.410007 0.66516,1.284436 0.18817,1.960624 l -0.96957,1.374504 c -0.47698,0.676188 -1.32888,0.890494 -1.91013,0.480487 -0.58124,-0.410008 -0.66515,-1.284437 -0.18817,-1.960625 z m 0.0437,1.059928 c -0.52263,0.740895 -0.71116,1.501173 -0.42264,1.704697 0.28852,0.203523 0.94149,-0.229142 1.46412,-0.970036 0.52262,-0.740895 0.71107,-1.501048 0.42255,-1.704571 -0.28853,-0.203523 -0.94141,0.229016 -1.46403,0.96991 z"
         style="fill:#51413a;fill-opacity:1;stroke:#000000;stroke-width:0.17711687;stroke-miterlimit:4;stroke-dasharray:none;stroke-opacity:1" />
      <path
         style="fill:#51413a;fill-opacity:1;stroke:#000000;stroke-width:0.17711687;stroke-miterlimit:4;stroke-dasharray:none;stroke-opacity:1"
         d="m 156.86084,87.10325 c 0.38292,-0.733559 1.19881,-1.059134 1.82937,-0.729975 0.63055,0.329159 0.82988,1.18469 0.44695,1.918249 l -0.77838,1.491124 c -0.38293,0.733559 -1.19881,1.059135 -1.82937,0.729976 -0.63056,-0.32916 -0.82989,-1.184691 -0.44696,-1.91825 z m 0.18408,1.044733 c -0.41957,0.803756 -0.50543,1.582341 -0.19243,1.745732 0.31301,0.163391 0.90271,-0.352182 1.32228,-1.155937 0.41957,-0.803756 0.50536,-1.582205 0.19236,-1.745596 -0.313,-0.163391 -0.90263,0.352046 -1.32221,1.155801 z"
         id="path950"
         inkscape:connector-curvature="0" />
      <path
         inkscape:connector-curvature="0"
         id="path952"
         d="m 158.45853,83.959443 c 0.30603,-0.768823 1.08441,-1.176 1.74528,-0.912943 0.66087,0.263057 0.94651,1.093765 0.64048,1.862588 l -0.62207,1.562807 c -0.30603,0.768823 -1.0844,1.176001 -1.74527,0.912944 -0.66087,-0.263058 -0.94652,-1.093766 -0.64049,-1.862589 z m 0.2898,1.020478 c -0.33531,0.842394 -0.34123,1.625677 -0.0132,1.756256 0.32805,0.130579 0.86203,-0.44251 1.19734,-1.284904 0.33531,-0.842395 0.34118,-1.625535 0.0131,-1.756114 -0.32805,-0.130579 -0.86197,0.442368 -1.19729,1.284762 z"
         style="fill:#51413a;fill-opacity:1;stroke:#000000;stroke-width:0.17711687;stroke-miterlimit:4;stroke-dasharray:none;stroke-opacity:1" />
      <path
         style="fill:#51413a;fill-opacity:1;stroke:#000000;stroke-width:0.17711687;stroke-miterlimit:4;stroke-dasharray:none;stroke-opacity:1"
         d="m 159.63327,80.834948 c 0.18491,-0.806566 0.89191,-1.327937 1.58522,-1.168988 0.69331,0.158948 1.10257,0.936233 0.91766,1.742799 l -0.37588,1.639529 c -0.18491,0.806566 -0.8919,1.327938 -1.58522,1.168989 -0.69331,-0.15895 -1.10257,-0.936234 -0.91766,-1.7428 z m 0.44237,0.96419 c -0.2026,0.883749 -0.0887,1.658732 0.25543,1.737632 0.34416,0.0789 0.78426,-0.569075 0.98687,-1.452824 0.20261,-0.88375 0.0887,-1.658583 -0.25546,-1.737484 -0.34415,-0.0789 -0.78422,0.568926 -0.98683,1.452675 z"
         id="path954"
         inkscape:connector-curvature="0" />
    </g>
    <rect
       style="fill:#d7ddd7;fill-opacity:1;fill-rule:evenodd;stroke:#000019;stroke-width:0.37099349;stroke-miterlimit:4;stroke-dasharray:none;stroke-dashoffset:0;stroke-opacity:0.69801983"
       id="rect12304"
       width="72.489838"
       height="45.105465"
       x="80.171745"
       y="95.125916" />
    <text
       xml:space="preserve"
       style="font-style:normal;font-weight:normal;font-size:7.76111126px;line-height:6.61458302px;font-family:sans-serif;text-align:center;letter-spacing:0px;word-spacing:0px;text-anchor:middle;fill:#000000;fill-opacity:1;stroke:none;stroke-width:0.26458332px;stroke-linecap:butt;stroke-linejoin:miter;stroke-opacity:1"
       x="116.06784"
       y="104.9125"
       id="text12308"><tspan
         sodipodi:role="line"
         id="tspan12306"
         x="116.06784"
         y="104.9125"
         style="font-style:normal;font-variant:normal;font-weight:normal;font-stretch:normal;font-size:7.76111126px;font-family:'Arabic Typesetting';-inkscape-font-specification:'Arabic Typesetting';text-align:center;text-anchor:middle;stroke-width:0.26458332px"
         dy="-2.3899996">WELCOME TO</tspan><tspan
         sodipodi:role="line"
         x="116.06784"
         y="112.96318"
         style="font-style:normal;font-variant:normal;font-weight:normal;font-stretch:normal;font-size:7.76111126px;font-family:'DejaVu Math TeX Gyre';-inkscape-font-specification:'DejaVu Math TeX Gyre';text-align:center;text-anchor:middle;stroke-width:0.26458332px"
         id="tspan12310"
         dy="3.7499983">Joe's</tspan><tspan
         sodipodi:role="line"
         x="116.06784"
         y="119.82793"
         style="font-style:normal;font-variant:normal;font-weight:normal;font-stretch:normal;font-size:7.76111126px;font-family:'DejaVu Math TeX Gyre';-inkscape-font-specification:'DejaVu Math TeX Gyre';text-align:center;text-anchor:middle;stroke-width:0.26458332px"
         id="tspan12312"
         dy="7.0400019">Space Elevator</tspan></text>
    <g
       id="g12331"
       transform="rotate(9.1562976,153.16308,119.08306)">
      <rect
         transform="rotate(-16.281047)"
         y="160.93175"
         x="42.890339"
         height="11.641666"
         width="69.849998"
         id="rect12322"
         style="fill:#efdd80;fill-opacity:1;fill-rule:evenodd;stroke:#000019;stroke-width:0.36500001;stroke-miterlimit:4;stroke-dasharray:none;stroke-dashoffset:0;stroke-opacity:0.69801983" />
      <text
         transform="rotate(-16.281047)"
         id="text12326"
         y="169.92758"
         x="47.388256"
         style="font-style:normal;font-variant:normal;font-weight:normal;font-stretch:normal;font-size:10.58333302px;line-height:6.61458302px;font-family:Stencil;-inkscape-font-specification:Stencil;letter-spacing:0px;word-spacing:0px;fill:#000000;fill-opacity:1;stroke:none;stroke-width:0.26458332px;stroke-linecap:butt;stroke-linejoin:miter;stroke-opacity:1"
         xml:space="preserve"><tspan
           style="font-style:normal;font-variant:normal;font-weight:normal;font-stretch:normal;font-family:Stencil;-inkscape-font-specification:Stencil;stroke-width:0.26458332px"
           y="169.92758"
           x="47.388256"
           id="tspan12324"
           sodipodi:role="line">CONDEMNED</tspan></text>
    </g>
    <g
       id="g4747">
      <rect
         y="49.677456"
         x="86.103722"
         height="16.744436"
         width="68.084351"
         id="rect9343"
         style="fill:#51413a;fill-opacity:1;stroke:#000006;stroke-width:0.48100004;stroke-miterlimit:4;stroke-dasharray:none;stroke-opacity:0.98999999" />
      <rect
         y="49.436893"
         x="86.342812"
         height="1.2160764"
         width="67.606171"
         id="rect9345"
         style="fill:#51413a;fill-opacity:1;stroke:none;stroke-width:0.48100001;stroke-miterlimit:4;stroke-dasharray:none;stroke-opacity:0.98999999" />
    </g>
    <ellipse
       style="fill:#51413a;fill-opacity:1;stroke:#000000;stroke-width:0.23220265;stroke-miterlimit:4;stroke-dasharray:none;stroke-opacity:1"
       id="path980"
       cx="71.023537"
       cy="72.937935"
       rx="1.0577767"
       ry="1.0830445" />
    <circle
       style="fill:#51413a;fill-opacity:1;stroke:#000000;stroke-width:0.30000001;stroke-miterlimit:4;stroke-dasharray:none;stroke-opacity:1"
       id="path982"
       cx="161.48091"
       cy="79.392487"
       r="1.145918" />
  </g>
</svg>
