<?xml version="1.0" encoding="UTF-8" standalone="no"?>
<!-- Created with Inkscape (http://www.inkscape.org/) -->

<svg
   xmlns:dc="http://purl.org/dc/elements/1.1/"
   xmlns:cc="http://creativecommons.org/ns#"
   xmlns:rdf="http://www.w3.org/1999/02/22-rdf-syntax-ns#"
   xmlns:svg="http://www.w3.org/2000/svg"
   xmlns="http://www.w3.org/2000/svg"
   xmlns:sodipodi="http://sodipodi.sourceforge.net/DTD/sodipodi-0.dtd"
   xmlns:inkscape="http://www.inkscape.org/namespaces/inkscape"
   width="210mm"
   height="297mm"
   viewBox="0 0 210 297"
   version="1.1"
   id="svg2613"
   inkscape:version="0.92.1 r"
   sodipodi:docname="starbaby.svg"
   inkscape:export-filename="/home/josh/android/andbeyond/assets_local/starbaby.png"
   inkscape:export-xdpi="253.68773"
   inkscape:export-ydpi="253.68773">
  <defs
     id="defs2607" />
  <sodipodi:namedview
     id="base"
     pagecolor="#6d6761"
     bordercolor="#666666"
     borderopacity="1.0"
     inkscape:pageopacity="0"
     inkscape:pageshadow="2"
     inkscape:zoom="1.3192319"
     inkscape:cx="254.34648"
     inkscape:cy="674.66761"
     inkscape:document-units="mm"
     inkscape:current-layer="layer1"
     showgrid="false"
     inkscape:snap-nodes="false"
     inkscape:window-width="1918"
     inkscape:window-height="1042"
     inkscape:window-x="0"
     inkscape:window-y="18"
     inkscape:window-maximized="0" />
  <metadata
     id="metadata2610">
    <rdf:RDF>
      <cc:Work
         rdf:about="">
        <dc:format>image/svg+xml</dc:format>
        <dc:type
           rdf:resource="http://purl.org/dc/dcmitype/StillImage" />
        <dc:title />
      </cc:Work>
    </rdf:RDF>
  </metadata>
  <g
     inkscape:label="Layer 1"
     inkscape:groupmode="layer"
     id="layer1">
    <g
       id="g3343"
       transform="translate(-36.301111,64.980994)">
      <path
         inkscape:connector-curvature="0"
         id="path3200"
         d="m 161.02463,50.080877 c 0,0 1.50419,3.61005 2.50698,4.31201 1.0028,0.20056 2.60727,1.10307 4.01118,2.30642 0,0 3.50977,2.10587 3.10865,4.31201 l 0.10028,7.92207 c 0,0 -16.84692,7.11983 -17.84971,7.22011 -1.0028,0.10028 -19.15335,-5.41508 -19.15335,-5.41508 l 0.90251,-10.22849 c 0,0 0.30084,-7.11983 3.71034,-7.52095 0,0 4.31201,0.40112 6.21731,-0.80223 0.70196,-0.10028 3.30922,-2.00559 3.30922,-2.00559"
         style="fill:#4c82a0;fill-opacity:1;stroke:#000000;stroke-width:0.26458332px;stroke-linecap:butt;stroke-linejoin:miter;stroke-opacity:1" />
      <path
         sodipodi:nodetypes="cccccccccc"
         inkscape:connector-curvature="0"
         id="path3208"
         d="m 133.24726,71.440367 c -0.20056,0.40112 7.62123,-18.45139 8.7243,-18.75223 0,0 1.90531,-3.50977 3.71034,-4.01117 0,0 1.30363,-0.5014 1.70474,1.30363 l 1.50419,2.10587 0.47633,0.87744 -1.98052,1.52926 c 0,0 -2.00558,0.10028 -2.10586,0.70195 0,0 -0.60168,1.90531 -2.10587,2.70755 0,0 -4.31201,8.82458 -5.61564,14.94161"
         style="fill:#4e82a0;fill-opacity:1;stroke:#000000;stroke-width:0.26458332px;stroke-linecap:butt;stroke-linejoin:miter;stroke-opacity:1" />
      <path
         inkscape:connector-curvature="0"
         id="path3204"
         d="M 165.63748,73.646517 154.4062,51.885907 c 0,0 -1.60447,-0.80224 -1.90531,0.40111 0,0 -1.80503,-1.30363 -2.20615,0.60168 0,0 -1.60446,-1.80503 -1.50419,0.10028 0,0 -1.9053,-1.10307 -1.50419,0.90251 0,0 0.30084,2.60727 1.40392,3.61006 0,0 1.4039,1.90531 1.9053,2.00559 l 10.02793,15.94441"
         style="fill:#4c82a0;fill-opacity:1;stroke:#000000;stroke-width:0.26458332px;stroke-linecap:butt;stroke-linejoin:miter;stroke-opacity:1" />
      <path
         inkscape:connector-curvature="0"
         id="path3210"
         d="m 147.98832,52.788417 -1.80503,-2.20614"
         style="fill:none;stroke:#000000;stroke-width:0.26458332px;stroke-linecap:butt;stroke-linejoin:miter;stroke-opacity:1" />
      <path
         inkscape:connector-curvature="0"
         id="path3214"
         d="m 147.18609,53.390087 -2.00559,-0.80223"
         style="fill:none;stroke:#000000;stroke-width:0.26458332px;stroke-linecap:butt;stroke-linejoin:miter;stroke-opacity:1" />
      <path
         inkscape:connector-curvature="0"
         id="path3198"
         d="m 166.33943,22.102947 c 0,0 0.60168,7.119828 -0.20055,9.426254 0,0 -0.5014,2.206146 -0.30084,3.208939 0,0 1.10307,2.005587 0.70195,4.512567 0,0 -2.4067,7.42067 -4.61285,9.7271 0,0 -2.10586,2.80782 -3.61005,3.81061 0,0 -5.3148,1.20335 -7.62123,-1.00279 0,0 -5.3148,-2.10587 -7.92207,-8.92486 l -0.70195,-2.9081 -0.5014,1.50419 -0.90251,0.70195 -0.90251,-1.00279 c 0,0 -2.00559,-5.31481 0.50139,-8.624022 0,0 0.90252,0 1.30363,1.103073 0,0 -0.40111,-6.217318 0.80224,-8.82458 0,0 1.30363,-5.615641 3.10866,-7.22011 0,0 4.11145,-4.111452 8.02234,-3.509776 0,0 4.31201,-0.501397 7.52095,1.40391 0,0 4.91368,2.406704 5.3148,6.618435 z"
         style="fill:#4c82a0;fill-opacity:1;stroke:#000000;stroke-width:0.26458332px;stroke-linecap:butt;stroke-linejoin:miter;stroke-opacity:1" />
      <path
         inkscape:connector-curvature="0"
         id="path3220"
         d="m 148.90367,32.762787 c 0,0 3.66679,-3.732602 6.69588,-0.177743 0,0 -3.34794,6.398743 -6.69588,0.177743 z"
         style="fill:#b1acb0;fill-opacity:1;stroke:#000000;stroke-width:0.26458332px;stroke-linecap:butt;stroke-linejoin:miter;stroke-opacity:1" />
      <path
         inkscape:connector-curvature="0"
         id="path3222"
         d="m 158.47708,32.774322 c 0.56628,-0.136523 4.417,-4.095679 7.0219,-1.365229 -1.24582,6.689604 -7.0219,1.365229 -7.0219,1.365229 z"
         style="fill:#b1acb0;fill-opacity:1;stroke:#000000;stroke-width:0.32808399px;stroke-linecap:butt;stroke-linejoin:miter;stroke-opacity:1" />
      <path
         inkscape:connector-curvature="0"
         id="path3224"
         d="m 148.48972,41.657417 c 0,0 1.9053,1.9053 6.11703,2.70754 0,0 3.00838,0.70195 5.71592,0.10028 0,0 2.40671,-0.80224 3.50978,-2.10587 0,0 -1.20335,4.41229 -4.71313,6.11704 0,0 -6.01675,0 -6.71871,-1.30363 0,0 -5.41508,-2.4067 -3.91089,-5.51536 z"
         style="fill:#dbd7da;fill-opacity:0.43000004;stroke:#000000;stroke-width:0.26458332px;stroke-linecap:butt;stroke-linejoin:miter;stroke-opacity:1" />
      <path
         inkscape:connector-curvature="0"
         id="path3226"
         d="m 148.38944,41.857977 c 0,0 2.00558,3.71033 5.8162,4.71312 0,0 3.10866,0.80224 5.51536,-0.20055 0,0 3.50978,-2.70755 4.01117,-3.61006"
         style="fill:none;stroke:#000000;stroke-width:0.26458332px;stroke-linecap:butt;stroke-linejoin:miter;stroke-opacity:1" />
      <path
         inkscape:connector-curvature="0"
         id="path3228"
         d="m 152.40061,43.863557 -1.10307,2.80782"
         style="fill:none;stroke:#000000;stroke-width:0.26458332px;stroke-linecap:butt;stroke-linejoin:miter;stroke-opacity:1" />
      <path
         inkscape:connector-curvature="0"
         id="path3230"
         d="m 154.70703,44.364957 -0.70195,3.81061"
         style="fill:none;stroke:#000000;stroke-width:0.26458332px;stroke-linecap:butt;stroke-linejoin:miter;stroke-opacity:1" />
      <path
         inkscape:connector-curvature="0"
         id="path3232"
         d="m 157.91597,44.766067 -0.20056,3.50978"
         style="fill:none;stroke:#000000;stroke-width:0.26458332px;stroke-linecap:butt;stroke-linejoin:miter;stroke-opacity:1" />
      <path
         inkscape:connector-curvature="0"
         id="path3234"
         d="m 160.72379,44.364957 0.20056,2.70754"
         style="fill:none;stroke:#000000;stroke-width:0.26458332px;stroke-linecap:butt;stroke-linejoin:miter;stroke-opacity:1" />
      <path
         inkscape:connector-curvature="0"
         id="path3236"
         d="m 151.09698,33.033389 c 0,0 1.9053,-1.103071 2.70754,-0.300836 0,0 -1.90531,1.403906 -2.70754,0.300836 z"
         style="fill:#378eb0;fill-opacity:1;stroke:#000000;stroke-width:0.26458332px;stroke-linecap:butt;stroke-linejoin:miter;stroke-opacity:1" />
      <path
         inkscape:connector-curvature="0"
         id="path3238"
         d="m 162.02742,32.531993 c 0,0 0.90252,-0.802232 1.80503,-0.401116 0,0 -0.70196,1.403907 -1.80503,0.401116 z"
         style="fill:#378eb0;fill-opacity:1;stroke:#000000;stroke-width:0.26458332px;stroke-linecap:butt;stroke-linejoin:miter;stroke-opacity:1" />
      <path
         inkscape:connector-curvature="0"
         id="path3240"
         d="m 148.13874,30.12529 c 0,0 1.25349,-1.253492 2.10586,-0.902515 0,0 0.60168,0.752098 1.95545,0.300841 0,0 0.7521,-1.203352 1.90531,-0.701956 0,0 -0.70196,-0.05014 -0.95266,1.002794 0,0 -2.55712,1.40391 -3.25907,0.350977 0,0 -0.60168,-0.501399 -1.75489,-0.05014 z"
         style="fill:#3d7486;fill-opacity:1;stroke:#000000;stroke-width:0.26458332px;stroke-linecap:butt;stroke-linejoin:miter;stroke-opacity:1" />
      <path
         inkscape:transform-center-y="0.051343138"
         inkscape:transform-center-x="0.21665853"
         style="fill:#3d7486;fill-opacity:1;stroke:#000000;stroke-width:0.26458332px;stroke-linecap:butt;stroke-linejoin:miter;stroke-opacity:1"
         d="m 165.41334,28.660107 c 0,0 -1.30246,1.202535 -2.14016,0.817863 0,0 -0.57123,-0.775482 -1.94191,-0.378542 0,0 -0.79946,1.172419 -1.93177,0.625457 0,0 0.6994,0.07808 0.99187,-0.964026 0,0 2.61105,-1.300874 3.27047,-0.220799 0,0 0.58122,0.524982 1.7515,0.120047 z"
         id="path3242"
         inkscape:connector-curvature="0" />
      <path
         inkscape:connector-curvature="0"
         id="path3264"
         d="m 158.0402,31.460379 c 0,0 -0.60168,2.908102 0,5.415088 0,0 0.10028,1.20335 0.60168,2.80782 v 0 c 0,0 0.04,0.25762 0.50092,0.62989 0,0 0.31908,1.55998 -0.72681,0.62044 0,0 -0.93954,0.86863 -0.99272,0.0886 0,0 -0.60272,0.70912 -0.97498,-0.0177 -0.0709,0.0177 -1.45362,0.56728 -1.16999,-0.7268 0,0 -0.10636,-1.16998 0.47863,-1.9677 0,0 0.63817,-2.46406 0.54954,-4.768574 0,0 -0.24818,-2.020883 -0.62045,-2.322242"
         style="fill:none;stroke:#000000;stroke-width:0.26458332px;stroke-linecap:butt;stroke-linejoin:miter;stroke-opacity:1" />
    </g>
    <ellipse
       style="fill:#88ccda;fill-opacity:0.43000004;stroke:#9fe2f0;stroke-width:2.92375135;stroke-miterlimit:4;stroke-dasharray:none;stroke-opacity:0.43137255"
       id="path3194"
       cx="117.1935"
       cy="109.47689"
       rx="31.221958"
       ry="35.030842" />
    <path
       style="fill:#dadada;fill-opacity:1;stroke:#a29fa2;stroke-width:0.31252152px;stroke-linecap:butt;stroke-linejoin:miter;stroke-opacity:1"
       d="m 79.269735,163.20737 c 0,0 -0.666943,-6.16408 3.468114,-8.21876 0,0 3.734893,-2.61505 6.93623,-0.18679 0,0 -0.800335,-7.6584 4.001669,-7.84519 0,0 -0.266777,-11.95456 7.336392,-12.88851 0,0 4.00167,-5.60369 8.13673,-2.80185 0,0 8.5369,-4.29617 11.47145,2.05469 0,0 1.60067,-3.92259 5.20218,-3.36223 0,0 7.203,-0.18679 8.4035,5.97729 0,0 6.00251,2.61505 5.06879,8.40555 0,0 5.46894,-2.05469 5.46894,3.54902 0,0 6.40267,-0.37359 4.53524,6.91123 0,0 1.46727,0 1.73405,6.72444 z"
       id="path3160"
       inkscape:connector-curvature="0" />
    <path
       style="fill:#dadada;fill-opacity:1;stroke:#a29fa2;stroke-width:0.26385757px;stroke-linecap:butt;stroke-linejoin:miter;stroke-opacity:1"
       d="m 79.330632,167.39153 c 0,0 0.657786,3.96906 5.920067,5.38658 0,0 4.040681,3.87454 9.302963,0.945 0,0 3.194956,3.87455 8.175328,2.26803 0,0 5.82609,2.92953 8.08137,-1.98453 0,0 4.69846,5.29207 9.4909,2.64604 0,0 6.95373,2.83504 11.27631,-1.41753 0,0 7.23565,1.41753 9.77281,-2.36252 0,0 5.73213,-0.189 7.70549,-3.30754 0,0 1.83003,0.40166 1.9975,-2.00814 z"
       id="path3162"
       inkscape:connector-curvature="0"
       sodipodi:nodetypes="ccccccccccc" />
    <rect
       id="rect3158"
       width="72"
       height="6.8454175"
       x="79.186012"
       y="160.87329"
       style="fill:#dadada;fill-opacity:1;stroke-width:0.06098384" />
    <path
       sodipodi:type="star"
       style="fill:#d0d1b6;fill-opacity:1;stroke:none;stroke-width:0.2;stroke-miterlimit:4;stroke-dasharray:none;stroke-opacity:1"
       id="path3190"
       sodipodi:sides="9"
       sodipodi:cx="117.21041"
       sodipodi:cy="120.7875"
       sodipodi:r1="29.255608"
       sodipodi:r2="14.627803"
       sodipodi:arg1="0.6796844"
       sodipodi:arg2="1.0287503"
       inkscape:flatsided="false"
       inkscape:rounded="0"
       inkscape:randomized="0"
       d="m 139.96458,139.17604 -15.20783,-5.85756 -1.93556,16.18156 -7.88471,-14.26256 -11.88403,11.15164 3.12776,-15.99395 -16.271827,0.90374 12.676717,-10.24158 -13.045863,-9.76703 16.294093,0.30293 -3.71559,-15.867692 12.28728,10.705692 7.35325,-14.543689 2.53112,16.099149 14.98142,-6.41453 -8.40939,13.95963 15.59962,4.71605 -15.41504,5.28826 z"
       inkscape:transform-center-x="2.6365778"
       inkscape:transform-center-y="-0.25780701"
       transform="rotate(6.0267206,-87.586398,122.14773)" />
    <ellipse
       style="fill:#d0d1b6;fill-opacity:1;stroke:none;stroke-width:0.2;stroke-miterlimit:4;stroke-dasharray:none;stroke-opacity:1"
       id="path3188"
       cx="116.29572"
       cy="148.64037"
       rx="17.660936"
       ry="22.688021" />
    <g
       id="g3186"
       transform="translate(-0.64931512,19.930647)">
      <rect
         y="109.20253"
         x="109.4808"
         height="31.466518"
         width="14.2686"
         id="rect3166"
         style="fill:#313131;fill-opacity:1;stroke:#000000;stroke-width:0.2;stroke-miterlimit:4;stroke-dasharray:none;stroke-opacity:1" />
      <ellipse
         ry="0.29744175"
         rx="0.39537096"
         cy="109.93545"
         cx="123.87682"
         id="path3178"
         style="fill:#313131;fill-opacity:1;stroke:none;stroke-width:0.2;stroke-miterlimit:4;stroke-dasharray:none;stroke-opacity:1" />
      <rect
         y="110.20335"
         x="110.46059"
         height="31.86084"
         width="13.946653"
         id="rect3164"
         style="fill:#393939;fill-opacity:1;stroke:#000000;stroke-width:0.2;stroke-miterlimit:4;stroke-dasharray:none;stroke-opacity:1" />
      <path
         inkscape:connector-curvature="0"
         id="path3170"
         d="m 109.47135,109.19308 1.03944,1.03943"
         style="fill:none;stroke:#000000;stroke-width:0.26458332px;stroke-linecap:butt;stroke-linejoin:miter;stroke-opacity:1" />
      <path
         inkscape:connector-curvature="0"
         id="path3172"
         d="m 123.73995,109.2167 0.66146,1.01581"
         style="fill:none;stroke:#000000;stroke-width:0.26458332px;stroke-linecap:butt;stroke-linejoin:miter;stroke-opacity:1" />
      <rect
         transform="matrix(0.84250679,-0.53868573,0.54328775,0.83954655,0,0)"
         y="158.69427"
         x="44.170868"
         height="0.62641978"
         width="0.24848352"
         id="rect3176"
         style="fill:#313131;fill-opacity:1;stroke:none;stroke-width:0.24871257;stroke-miterlimit:4;stroke-dasharray:none;stroke-opacity:1" />
    </g>
    <path
       style="fill:#dadada;stroke:#b4b2b4;stroke-width:0.26458332px;stroke-linecap:butt;stroke-linejoin:miter;stroke-opacity:1;fill-opacity:1"
       d="m 143.96473,170.06034 c 1.40317,-1.6838 -1.21608,-4.77076 -1.21608,-4.77076 0.65481,-2.43216 -2.89987,-3.55469 -2.89987,-3.55469 -1.30962,-1.49671 -3.08696,-0.18709 -3.83532,-0.18709 0.37418,-2.3386 -2.61924,-3.18055 -3.92886,-3.27405 0,-2.99342 -4.11595,-2.89982 -4.77076,-2.99342 -2.89988,-1.68379 -5.98684,0.37418 -5.98684,0.37418 -2.5257,-2.99342 -5.61266,-1.02903 -6.45456,-1.12253 -2.33861,-1.30962 -4.77076,1.12249 -5.33202,1.02899 -2.61925,-0.18709 -4.95786,2.61924 -4.95786,2.61924 -4.20949,-1.40317 -10.196328,2.61924 -10.196328,2.61924 0,0 -2.899873,0.18709 -3.27405,2.80633 0,0 -3.554685,1.49671 -3.180508,3.74177 0,0 -0.841899,2.99342 1.964431,4.95785"
       id="path3192"
       inkscape:connector-curvature="0" />
  </g>
</svg>
